<svg width="400" height="120" viewBox="0 0 400 120" fill="none" xmlns="http://www.w3.org/2000/svg">
<rect x="54" y="13" width="45" height="45" fill="#3AFFBD"/>
<rect x="102" y="33" width="25" height="25" fill="#3AFFBD"/>
<rect x="54" y="61" width="25" height="25" fill="#48FFF3"/>
<rect x="82" y="61" width="45" height="45" fill="#48FFF3"/>
<path d="M146 43.76C149.627 43.76 152.48 44.8267 154.56 46.96C156.667 49.0667 157.72 52.12 157.72 56.12V72H154.8V63.76H137.2V72H134.32V56.12C134.32 52.12 135.36 49.0667 137.44 46.96C139.547 44.8267 142.4 43.76 146 43.76ZM154.8 61.2V55.84C154.8 52.72 154.027 50.3733 152.48 48.8C150.933 47.2 148.773 46.4 146 46.4C143.227 46.4 141.067 47.2 139.52 48.8C137.973 50.3733 137.2 52.72 137.2 55.84V61.2H154.8ZM173.791 61.44L168.831 66V72H165.991V42.32H168.831V62.44L181.391 50.96H184.911L175.911 59.56L185.751 72H182.271L173.791 61.44ZM197.755 72.2C195.729 72.2 193.902 71.7467 192.275 70.84C190.649 69.9067 189.369 68.6267 188.435 67C187.502 65.3733 187.035 63.5333 187.035 61.48C187.035 59.4267 187.502 57.5867 188.435 55.96C189.369 54.3333 190.649 53.0667 192.275 52.16C193.902 51.2533 195.729 50.8 197.755 50.8C199.782 50.8 201.609 51.2533 203.235 52.16C204.862 53.0667 206.129 54.3333 207.035 55.96C207.969 57.5867 208.435 59.4267 208.435 61.48C208.435 63.5333 207.969 65.3733 207.035 67C206.129 68.6267 204.862 69.9067 203.235 70.84C201.609 71.7467 199.782 72.2 197.755 72.2ZM197.755 69.68C199.249 69.68 200.582 69.3467 201.755 68.68C202.955 67.9867 203.889 67.0133 204.555 65.76C205.222 64.5067 205.555 63.08 205.555 61.48C205.555 59.88 205.222 58.4533 204.555 57.2C203.889 55.9467 202.955 54.9867 201.755 54.32C200.582 53.6267 199.249 53.28 197.755 53.28C196.262 53.28 194.915 53.6267 193.715 54.32C192.542 54.9867 191.609 55.9467 190.915 57.2C190.249 58.4533 189.915 59.88 189.915 61.48C189.915 63.08 190.249 64.5067 190.915 65.76C191.609 67.0133 192.542 67.9867 193.715 68.68C194.915 69.3467 196.262 69.68 197.755 69.68ZM225.073 50.8C227.047 50.8 228.833 51.2533 230.433 52.16C232.033 53.04 233.287 54.2933 234.193 55.92C235.1 57.5467 235.553 59.4 235.553 61.48C235.553 63.56 235.1 65.4133 234.193 67.04C233.287 68.6667 232.033 69.9333 230.433 70.84C228.833 71.7467 227.047 72.2 225.073 72.2C223.313 72.2 221.727 71.8267 220.313 71.08C218.927 70.3333 217.807 69.2533 216.953 67.84V72H214.233V42.32H217.073V54.96C217.953 53.6 219.073 52.5733 220.433 51.88C221.82 51.16 223.367 50.8 225.073 50.8ZM224.873 69.68C226.34 69.68 227.673 69.3467 228.873 68.68C230.073 67.9867 231.007 67.0133 231.673 65.76C232.367 64.5067 232.713 63.08 232.713 61.48C232.713 59.88 232.367 58.4533 231.673 57.2C231.007 55.9467 230.073 54.9867 228.873 54.32C227.673 53.6267 226.34 53.28 224.873 53.28C223.38 53.28 222.033 53.6267 220.833 54.32C219.66 54.9867 218.727 55.9467 218.033 57.2C217.367 58.4533 217.033 59.88 217.033 61.48C217.033 63.08 217.367 64.5067 218.033 65.76C218.727 67.0133 219.66 67.9867 220.833 68.68C222.033 69.3467 223.38 69.68 224.873 69.68ZM241.343 50.96H244.183V72H241.343V50.96ZM242.783 46.36C242.196 46.36 241.703 46.16 241.303 45.76C240.903 45.36 240.703 44.88 240.703 44.32C240.703 43.7867 240.903 43.32 241.303 42.92C241.703 42.52 242.196 42.32 242.783 42.32C243.369 42.32 243.863 42.52 244.263 42.92C244.663 43.2933 244.863 43.7467 244.863 44.28C244.863 44.8667 244.663 45.36 244.263 45.76C243.863 46.16 243.369 46.36 242.783 46.36ZM254.805 55.08C255.472 53.6667 256.458 52.6 257.765 51.88C259.098 51.16 260.738 50.8 262.685 50.8V53.56L262.005 53.52C259.792 53.52 258.058 54.2 256.805 55.56C255.552 56.92 254.925 58.8267 254.925 61.28V72H252.085V50.96H254.805V55.08Z" fill="white"/>
<path d="M278.634 44C282.207 44 285.007 44.8533 287.034 46.56C289.06 48.2667 290.074 50.6133 290.074 53.6C290.074 56.5867 289.06 58.9333 287.034 60.64C285.007 62.32 282.207 63.16 278.634 63.16H271.114V72H268.154V44H278.634ZM278.554 60.56C281.327 60.56 283.447 59.96 284.914 58.76C286.38 57.5333 287.114 55.8133 287.114 53.6C287.114 51.3333 286.38 49.6 284.914 48.4C283.447 47.1733 281.327 46.56 278.554 46.56H271.114V60.56H278.554ZM314.957 50.96V72H312.237V67.84C311.384 69.2533 310.25 70.3333 308.837 71.08C307.45 71.8267 305.877 72.2 304.117 72.2C302.144 72.2 300.357 71.7467 298.757 70.84C297.157 69.9333 295.904 68.6667 294.997 67.04C294.09 65.4133 293.637 63.56 293.637 61.48C293.637 59.4 294.09 57.5467 294.997 55.92C295.904 54.2933 297.157 53.04 298.757 52.16C300.357 51.2533 302.144 50.8 304.117 50.8C305.824 50.8 307.357 51.16 308.717 51.88C310.104 52.5733 311.237 53.6 312.117 54.96V50.96H314.957ZM304.357 69.68C305.824 69.68 307.144 69.3467 308.317 68.68C309.517 67.9867 310.45 67.0133 311.117 65.76C311.81 64.5067 312.157 63.08 312.157 61.48C312.157 59.88 311.81 58.4533 311.117 57.2C310.45 55.9467 309.517 54.9867 308.317 54.32C307.144 53.6267 305.824 53.28 304.357 53.28C302.864 53.28 301.517 53.6267 300.317 54.32C299.144 54.9867 298.21 55.9467 297.517 57.2C296.85 58.4533 296.517 59.88 296.517 61.48C296.517 63.08 296.85 64.5067 297.517 65.76C298.21 67.0133 299.144 67.9867 300.317 68.68C301.517 69.3467 302.864 69.68 304.357 69.68ZM341.826 50.96V69.44C341.826 73.0133 341.013 75.6533 339.386 77.36C337.76 79.0933 335.306 79.96 332.026 79.96C330.186 79.96 328.44 79.6667 326.786 79.08C325.16 78.52 323.84 77.7333 322.826 76.72L324.266 74.56C325.173 75.4667 326.293 76.1733 327.626 76.68C328.96 77.1867 330.386 77.44 331.906 77.44C334.333 77.44 336.12 76.8133 337.266 75.56C338.413 74.3333 338.986 72.4133 338.986 69.8V67.36C338.24 68.5867 337.213 69.5333 335.906 70.2C334.626 70.8667 333.173 71.2 331.546 71.2C328.8 71.2 326.626 70.44 325.026 68.92C323.453 67.3733 322.666 65.12 322.666 62.16V50.96H325.506V61.88C325.506 64.0933 326.053 65.7733 327.146 66.92C328.24 68.0667 329.8 68.64 331.826 68.64C334.04 68.64 335.786 67.9733 337.066 66.64C338.346 65.28 338.986 63.4 338.986 61V50.96H341.826Z" fill="#5FFFD2"/>
</svg>
